<?xml version="1.0" encoding="UTF-8" standalone="no"?>
<!-- Created with Inkscape (http://www.inkscape.org/) -->
<svg id="svg2" xmlns:rdf="http://www.w3.org/1999/02/22-rdf-syntax-ns#" xmlns="http://www.w3.org/2000/svg" height="871" width="850" version="1.1" xmlns:cc="http://creativecommons.org/ns#" xmlns:dc="http://purl.org/dc/elements/1.1/" viewBox="0 0 85.040002 87.097124">
 <defs id="defs4">
  <clipPath id="clipPath4150" clipPathUnits="userSpaceOnUse">
   <path id="path4152" d="m0 70.866h70.866v-70.866h-70.866v70.866z"/>
  </clipPath>
 </defs>
 <metadata id="metadata7">
  <rdf:RDF>
   <cc:Work rdf:about="">
    <dc:format>image/svg+xml</dc:format>
    <dc:type rdf:resource="http://purl.org/dc/dcmitype/StillImage"/>
    <dc:title/>
   </cc:Work>
  </rdf:RDF>
 </metadata>
 <g id="layer1" transform="translate(-20.337 -34.528)">
  <g id="g4144" transform="matrix(1.25 0 0 -1.25 18.566 122.37)">
   <g id="g4146">
    <g id="g4148" clip-path="url(#clipPath4150)">
     <g id="g4154" transform="translate(3.6326 35.255)">
      <path id="path4156" d="m0 0c-0.148 0.015-0.284 0.054-0.407 0.12-0.123 0.067-0.229 0.154-0.318 0.26-0.088 0.107-0.154 0.227-0.197 0.36-0.043 0.135-0.058 0.278-0.046 0.427 0.014 0.149 0.054 0.288 0.119 0.413 0.065 0.124 0.151 0.231 0.255 0.32 0.105 0.09 0.224 0.157 0.357 0.201 0.134 0.044 0.275 0.059 0.424 0.047 0.149-0.014 0.284-0.053 0.407-0.119 0.124-0.064 0.23-0.15 0.318-0.256 0.089-0.105 0.155-0.226 0.198-0.36 0.042-0.134 0.057-0.279 0.045-0.432-0.014-0.148-0.054-0.287-0.119-0.412-0.066-0.124-0.151-0.231-0.257-0.32-0.106-0.09-0.225-0.157-0.358-0.201-0.132-0.044-0.273-0.06-0.421-0.048m3.195-2.976 0.176-0.993-3.969-2.014 0.002-0.015 4.451-0.716 0.175-0.994-5.112-1.698-0.279 0.967 4.07 1.124-0.002 0.015-4.27 0.624-0.176 1 3.822 1.918-0.003 0.014-4.237-0.183-0.059 0.951h5.411zm0.908-8.017-0.006 0.015-2.18-0.12 0.466-1.215 1.72 1.32zm-4.675-0.112-0.07 0.955 5.551-0.063 0.326-0.849-4.135-3.624-0.604 0.799 1.236 1.036-0.666 1.732-1.638 0.014zm2.89-4.195c-0.011-0.102-0.012-0.214-0.006-0.333 0.006-0.121 0.022-0.24 0.048-0.356 0.026-0.115 0.065-0.217 0.114-0.305 0.094-0.16 0.202-0.278 0.325-0.354 0.122-0.076 0.249-0.114 0.381-0.112 0.133 0.001 0.263 0.038 0.388 0.11 0.128 0.078 0.216 0.174 0.263 0.291 0.045 0.118 0.066 0.251 0.063 0.399-0.003 0.147-0.017 0.304-0.039 0.47s-0.037 0.336-0.046 0.511c-0.008 0.174 0.006 0.346 0.042 0.517s0.111 0.334 0.224 0.491c0.113 0.155 0.28 0.298 0.501 0.429 0.19 0.108 0.387 0.172 0.591 0.194 0.204 0.019 0.406-0.002 0.605-0.067 0.201-0.065 0.389-0.173 0.566-0.322 0.176-0.15 0.332-0.341 0.468-0.573 0.131-0.23 0.225-0.476 0.282-0.733s0.084-0.522 0.081-0.79l-0.821 0.006c-0.002 0.124-0.007 0.246-0.013 0.363-0.006 0.118-0.022 0.233-0.049 0.347-0.025 0.114-0.072 0.228-0.136 0.341-0.056 0.098-0.125 0.185-0.203 0.26s-0.164 0.132-0.257 0.173c-0.093 0.04-0.19 0.058-0.29 0.055-0.101-0.004-0.202-0.035-0.305-0.093-0.11-0.065-0.191-0.149-0.24-0.25-0.049-0.099-0.077-0.213-0.085-0.341-0.007-0.127-0.005-0.262 0.01-0.408 0.012-0.145 0.027-0.294 0.042-0.448 0.014-0.155 0.02-0.309 0.015-0.464-0.003-0.156-0.028-0.307-0.071-0.455-0.044-0.148-0.117-0.288-0.221-0.419-0.101-0.131-0.244-0.251-0.427-0.358-0.198-0.113-0.404-0.182-0.616-0.204-0.211-0.021-0.42-0.001-0.625 0.063-0.204 0.062-0.396 0.167-0.574 0.313-0.178 0.145-0.331 0.329-0.46 0.55-0.131 0.226-0.226 0.461-0.286 0.701-0.06 0.242-0.089 0.495-0.085 0.758l0.846 0.043zm5.865-3.246-0.008 0.012-2.087-0.643 0.746-1.066 1.349 1.697zm-4.508-1.24-0.299 0.91 5.401 1.281 0.521-0.744-3.135-4.517-0.779 0.629 0.949 1.304-1.065 1.52-1.593-0.383zm6.346-2.899c0.041-0.039 0.094-0.084 0.156-0.126 0.064-0.042 0.136-0.079 0.216-0.109 0.08-0.031 0.166-0.048 0.256-0.05 0.092-0.003 0.186 0.017 0.283 0.058 0.098 0.04 0.195 0.111 0.293 0.211 0.118 0.124 0.189 0.256 0.21 0.393 0.022 0.137 0.004 0.274-0.055 0.409-0.057 0.134-0.147 0.259-0.269 0.378l-0.41 0.395-1.118-1.135 0.438-0.424zm0.522 2.826 1.214-1.172c0.231-0.226 0.401-0.447 0.511-0.663 0.109-0.219 0.166-0.427 0.172-0.631 0.006-0.202-0.031-0.393-0.111-0.572-0.08-0.181-0.193-0.347-0.341-0.499-0.158-0.161-0.33-0.279-0.517-0.351-0.186-0.07-0.38-0.099-0.582-0.086-0.201 0.013-0.404 0.065-0.606 0.157l-0.289-2.483-0.995 0.233 0.365 2.506c0.012 0.073 0.007 0.143-0.015 0.207s-0.059 0.121-0.111 0.172l-0.222 0.213-1.488-1.528-0.725 0.7 3.74 3.797zm2.103-6.054 0.171 3.236 1.028-0.118-0.212-2.664 2.511 0.994 0.409-0.917-3.054-1.112-1.342-1.796-0.835 0.607 1.324 1.77zm4.237 0.738 0.878-0.448-1.142-2.21 0.034-0.017 3.119 1.324 0.387-0.854-2.649-1.01 0.636-2.891-0.973-0.144-0.663 3.346-0.014 0.007-1.188-2.282-0.878 0.449 2.453 4.73zm2.665-4.426c0.098 0.297 0.235 0.562 0.412 0.798 0.176 0.236 0.383 0.436 0.62 0.6 0.235 0.165 0.493 0.29 0.771 0.377 0.278 0.086 0.566 0.13 0.866 0.128 0.299-0.002 0.602-0.052 0.905-0.149 0.328-0.108 0.619-0.251 0.87-0.428 0.251-0.178 0.461-0.382 0.632-0.615 0.17-0.232 0.297-0.482 0.384-0.752 0.085-0.269 0.126-0.549 0.123-0.841-0.004-0.292-0.052-0.586-0.149-0.883s-0.234-0.563-0.408-0.799c-0.175-0.235-0.38-0.436-0.615-0.602-0.234-0.164-0.49-0.291-0.767-0.378-0.276-0.085-0.566-0.127-0.868-0.126s-0.606 0.053-0.916 0.151c-0.308 0.102-0.585 0.238-0.831 0.41-0.247 0.171-0.457 0.372-0.632 0.601-0.175 0.228-0.308 0.476-0.401 0.746-0.094 0.27-0.142 0.553-0.142 0.85-0.002 0.299 0.047 0.602 0.146 0.912m0.982-0.318c-0.089-0.278-0.131-0.545-0.123-0.8 0.006-0.256 0.06-0.49 0.158-0.707 0.099-0.216 0.24-0.404 0.423-0.562 0.182-0.161 0.406-0.283 0.668-0.37 0.263-0.083 0.517-0.11 0.762-0.08 0.246 0.03 0.472 0.108 0.681 0.231 0.209 0.124 0.391 0.286 0.546 0.483 0.154 0.199 0.272 0.425 0.356 0.677 0.086 0.271 0.127 0.533 0.119 0.787-0.007 0.254-0.06 0.49-0.158 0.708-0.098 0.219-0.237 0.408-0.421 0.571-0.182 0.161-0.405 0.286-0.667 0.373-0.171 0.055-0.349 0.083-0.533 0.083-0.185-0.001-0.367-0.031-0.549-0.088-0.182-0.056-0.354-0.144-0.517-0.258-0.163-0.116-0.309-0.26-0.437-0.436-0.128-0.174-0.231-0.379-0.308-0.612m5.047 0.956 1.024 0.192 0.842-4.324 0.015-0.002 2.032 3.971 0.909-0.43-2.641-4.835-0.917 0.113-1.264 5.315zm6.735-3.487-1.858 2.655 0.883 0.539 1.473-2.229 1.367 2.328 0.887-0.47-1.722-2.757 0.047-2.24-1.031-0.037-0.046 2.211zm9.978 1.325c0.084-0.315 0.107-0.61 0.073-0.884-0.036-0.271-0.124-0.518-0.262-0.737-0.14-0.22-0.325-0.409-0.556-0.567-0.23-0.159-0.497-0.282-0.805-0.37-0.304-0.087-0.595-0.126-0.871-0.114-0.276 0.011-0.529 0.076-0.761 0.19-0.232 0.115-0.434 0.283-0.605 0.505-0.172 0.222-0.306 0.5-0.403 0.832-0.153 0.538-0.303 1.075-0.449 1.614-0.147 0.539-0.296 1.077-0.445 1.615l0.948 0.271c0.151-0.547 0.303-1.094 0.451-1.64 0.149-0.546 0.302-1.092 0.457-1.639 0.053-0.18 0.129-0.332 0.227-0.456s0.213-0.221 0.344-0.288c0.131-0.07 0.273-0.109 0.424-0.123 0.151-0.011 0.307 0.006 0.465 0.051 0.249 0.073 0.443 0.185 0.584 0.333 0.14 0.148 0.228 0.325 0.265 0.528 0.036 0.204 0.021 0.423-0.044 0.66l-0.894 3.228 0.948 0.272 0.909-3.281zm-0.18 3.347 0.713 0.639 3.979-2.647 0.014 0.005-1.735 3.575 0.893 0.418 2.139-4.696-0.784-0.671-3.913 2.653-0.007-0.021 1.733-3.534-0.894-0.416-2.138 4.695zm4.474 2.395 0.827 0.537 2.863-4.494-0.826-0.537-2.864 4.494zm1.437 0.503 0.574 0.87 3.695-2.398 0.012 0.01-1.445 4.22 0.941 0.355 1.642-5.259-0.718-0.581-4.701 2.783zm3.879 3.5 1.944 2.084 0.619-0.579-1.271-1.362 0.992-0.946 1.261 1.352 0.585-0.546-1.266-1.358 1.065-1.003 1.292 1.385 0.619-0.578-1.979-2.123-3.861 3.674zm5.274 2.407c0.033 0.048 0.068 0.106 0.1 0.174 0.032 0.07 0.057 0.146 0.076 0.231 0.017 0.083 0.02 0.171 0.008 0.26-0.011 0.092-0.046 0.182-0.102 0.271-0.055 0.09-0.14 0.174-0.254 0.256-0.141 0.097-0.282 0.146-0.42 0.146-0.14 0-0.272-0.039-0.396-0.118-0.123-0.078-0.234-0.186-0.331-0.325l-0.326-0.466 1.296-0.927 0.349 0.498zm-2.872 0.075 0.968 1.381c0.186 0.264 0.378 0.466 0.575 0.609 0.198 0.141 0.395 0.231 0.595 0.268 0.199 0.038 0.393 0.032 0.583-0.02 0.192-0.051 0.373-0.136 0.546-0.258 0.184-0.131 0.327-0.283 0.427-0.456 0.099-0.173 0.158-0.36 0.177-0.562 0.019-0.201-0.001-0.408-0.06-0.623l2.497 0.103-0.074-1.019-2.533-0.032c-0.074 0.001-0.142-0.014-0.201-0.046-0.061-0.032-0.111-0.078-0.153-0.137l-0.177-0.253 1.743-1.23-0.578-0.827-4.335 3.102zm6.483 0.991-2.343 3.979-1.064-2.18-0.761 0.371 1.478 3.032 0.772-0.033 2.294-3.904 1.044 2.139 0.761-0.372-1.478-3.032h-0.703zm-2.313 6.138 0.354 0.92 4.958-1.952-0.353-0.921-4.959 1.953zm1.83 2.666-0.411-1.436-0.813 0.241 1.089 3.798 0.812-0.241-0.405-1.414 4.297-1.272-0.271-0.948-4.298 1.272zm3.211 3.902-2.887-1.47-0.411 0.949 2.412 1.148-2.116 1.678 0.589 0.813 2.491-2.089 2.225-0.265-0.108-1.026-2.195 0.262zm0.307 7.482c0.144 0.011 0.28-0.004 0.408-0.046 0.129-0.043 0.244-0.107 0.346-0.194 0.103-0.087 0.186-0.191 0.249-0.311 0.064-0.122 0.102-0.254 0.116-0.399 0.012-0.145-0.003-0.283-0.043-0.413-0.042-0.129-0.106-0.246-0.191-0.349-0.084-0.104-0.187-0.187-0.306-0.252-0.12-0.064-0.253-0.103-0.397-0.116-0.144-0.012-0.28 0.003-0.408 0.045-0.129 0.041-0.244 0.105-0.346 0.191-0.103 0.085-0.185 0.188-0.249 0.31-0.063 0.122-0.102 0.256-0.116 0.404-0.012 0.144 0.003 0.283 0.044 0.413 0.042 0.129 0.106 0.246 0.191 0.349 0.086 0.104 0.189 0.187 0.308 0.252 0.119 0.064 0.25 0.102 0.394 0.116" fill="#1b458f"/>
     </g>
     <g id="g4158" transform="translate(2.1646 40.641)">
      <path id="path4160" d="m0 0 0.188 0.968 5.222-1.063-0.188-0.967-5.222 1.062zm0.796 2.98 0.037 0.957 4.668 1.023 0.005 0.015-3.777 1.235 0.321 0.932 4.863-1.724-0.061-1.029-4.627-0.972 0.01-0.02 3.745-1.208-0.321-0.932-4.863 1.723zm2.301 6.409 1.475 2.554 0.73-0.43l-0.979-1.694 1.184-0.692 0.97 1.681 0.73-0.431-0.974-1.687 1.956-1.139-0.504-0.874-4.588 2.712zm4.343 2.41c-0.235 0.206-0.425 0.437-0.573 0.691s-0.251 0.523-0.31 0.805c-0.06 0.282-0.075 0.568-0.046 0.858 0.029 0.289 0.102 0.571 0.221 0.847 0.118 0.275 0.282 0.534 0.49 0.774 0.227 0.26 0.473 0.472 0.735 0.634 0.261 0.162 0.532 0.276 0.812 0.342 0.28 0.065 0.561 0.085 0.843 0.06 0.281-0.028 0.555-0.099 0.822-0.216s0.519-0.278 0.754-0.482c0.235-0.206 0.427-0.435 0.576-0.688s0.253-0.52 0.314-0.801c0.06-0.281 0.076-0.565 0.048-0.853-0.029-0.288-0.103-0.572-0.222-0.849-0.12-0.277-0.285-0.538-0.497-0.784-0.215-0.244-0.448-0.446-0.702-0.605-0.255-0.16-0.522-0.276-0.8-0.347-0.278-0.072-0.559-0.098-0.844-0.078-0.285 0.019-0.565 0.086-0.839 0.202-0.274 0.114-0.535 0.277-0.782 0.49m0.677 0.779c0.22-0.19 0.451-0.332 0.688-0.424 0.238-0.095 0.475-0.137 0.713-0.132 0.237 0.007 0.464 0.063 0.683 0.17 0.219 0.106 0.419 0.263 0.601 0.47 0.179 0.211 0.304 0.434 0.372 0.671 0.067 0.238 0.085 0.477 0.052 0.718-0.032 0.24-0.109 0.47-0.231 0.69s-0.284 0.417-0.484 0.592c-0.215 0.186-0.441 0.326-0.677 0.417-0.238 0.093-0.476 0.137-0.714 0.132-0.239-0.005-0.468-0.059-0.689-0.165-0.221-0.105-0.423-0.26-0.605-0.467-0.118-0.136-0.212-0.291-0.284-0.459-0.072-0.171-0.116-0.351-0.135-0.54-0.018-0.189-0.005-0.382 0.037-0.577s0.118-0.386 0.23-0.572c0.11-0.187 0.258-0.361 0.443-0.524m5.441 5.977c0.046 0.035 0.096 0.081 0.147 0.136 0.051 0.059 0.098 0.124 0.14 0.199 0.041 0.075 0.069 0.157 0.084 0.247 0.016 0.091 0.009 0.186-0.018 0.289-0.026 0.101-0.083 0.208-0.168 0.318-0.107 0.135-0.228 0.223-0.36 0.263-0.133 0.041-0.271 0.043-0.413 0.003-0.141-0.038-0.278-0.11-0.411-0.214l-0.449-0.351 0.969-1.265 0.479 0.375zm-2.724 0.91 1.329 1.038c0.256 0.198 0.498 0.335 0.728 0.415 0.231 0.077 0.446 0.105 0.648 0.082 0.201-0.022 0.385-0.084 0.552-0.189 0.168-0.105 0.317-0.24 0.446-0.407 0.138-0.179 0.231-0.366 0.275-0.561 0.045-0.195 0.046-0.39 0.005-0.588-0.04-0.198-0.12-0.391-0.24-0.579l2.419-0.631-0.369-0.954-2.431 0.711c-0.071 0.022-0.141 0.027-0.207 0.013-0.066-0.012-0.129-0.041-0.186-0.086l-0.243-0.189 1.307-1.686-0.795-0.622-3.238 4.233zm5.289 3.83 0.898 0.457 3.086-3.206 0.014 0.007-0.616 4.466 0.899 0.457 3.118-4.391-0.843-0.551-2.265 3.565-0.014-0.007 0.652-4.265-0.905-0.462-2.951 3.094-0.013-0.006 1.414-3.998-0.893-0.334-1.581 5.174zm9.717 2.795-0.015-0.004-0.223-2.172 1.273 0.27-1.035 1.906zm-0.621-4.635-0.953 0.08 0.931 5.473 0.888 0.189 2.933-4.651-0.884-0.472-0.829 1.383-1.815-0.386-0.271-1.616zm9.115 1.721c-0.235-0.191-0.494-0.339-0.775-0.443-0.281-0.106-0.575-0.169-0.879-0.19-0.399-0.025-0.77 0.017-1.113 0.129-0.344 0.112-0.649 0.283-0.913 0.512-0.266 0.229-0.478 0.505-0.639 0.83-0.16 0.325-0.255 0.687-0.286 1.086-0.025 0.411 0.015 0.791 0.126 1.14 0.109 0.348 0.278 0.654 0.504 0.917 0.226 0.264 0.499 0.475 0.82 0.633 0.321 0.159 0.68 0.252 1.076 0.281 0.32 0.022 0.632-0.008 0.933-0.091 0.302-0.081 0.584-0.216 0.845-0.402l-0.382-0.714c-0.118 0.086-0.251 0.156-0.398 0.214-0.149 0.058-0.3 0.1-0.457 0.125-0.156 0.026-0.307 0.036-0.452 0.025-0.26-0.02-0.492-0.084-0.696-0.194-0.203-0.111-0.376-0.257-0.515-0.437-0.139-0.183-0.242-0.39-0.306-0.624-0.065-0.235-0.089-0.486-0.071-0.755 0.014-0.204 0.055-0.399 0.122-0.587 0.067-0.187 0.155-0.359 0.267-0.517 0.109-0.157 0.239-0.292 0.386-0.406 0.149-0.113 0.311-0.198 0.487-0.257 0.178-0.057 0.366-0.078 0.564-0.066 0.225 0.017 0.418 0.046 0.575 0.089 0.158 0.044 0.295 0.094 0.412 0.155 0.116 0.061 0.225 0.125 0.326 0.195l0.439-0.648zm-3.596 6.271 0.761 0.053 0.6-0.645c0.082 0.119 0.168 0.241 0.257 0.364 0.089 0.125 0.175 0.244 0.256 0.359l0.753 0.053-0.794-1.23-0.86-0.06-0.973 1.106zm5.229-1.676 0.943 0.163 1.972-4.353 0.015-0.002 0.423 3.951 0.978-0.12-0.674-5.116-1.02-0.153-1.913 4.323-0.017-0.014-0.403-3.914-0.979 0.12 0.675 5.115zm6.401-0.977 0.952-0.255-1.424-5.135-0.952 0.256 1.424 5.134zm0.968 1.384 1.005-0.27-1.321-0.762-0.617 0.166 0.933 0.866zm2.634-7.206c0.047-0.091 0.106-0.187 0.176-0.283 0.072-0.098 0.149-0.189 0.234-0.272 0.085-0.082 0.172-0.147 0.262-0.194 0.166-0.082 0.321-0.123 0.465-0.12s0.271 0.041 0.381 0.114c0.111 0.074 0.2 0.175 0.265 0.304 0.066 0.134 0.087 0.263 0.062 0.387-0.026 0.124-0.08 0.246-0.164 0.368-0.083 0.122-0.18 0.245-0.289 0.374-0.108 0.127-0.214 0.262-0.316 0.403s-0.184 0.294-0.247 0.457c-0.062 0.162-0.089 0.34-0.08 0.533 0.01 0.192 0.073 0.403 0.187 0.632 0.101 0.195 0.231 0.357 0.39 0.486 0.16 0.127 0.341 0.219 0.544 0.273 0.204 0.054 0.42 0.066 0.65 0.037 0.229-0.028 0.464-0.104 0.704-0.224 0.236-0.122 0.448-0.276 0.636-0.461s0.355-0.393 0.499-0.619l-0.693-0.443c-0.069 0.104-0.14 0.203-0.208 0.298-0.069 0.096-0.145 0.185-0.23 0.265-0.083 0.081-0.184 0.151-0.299 0.211-0.102 0.052-0.206 0.087-0.313 0.108-0.106 0.021-0.209 0.021-0.309 0.004-0.1-0.016-0.191-0.053-0.274-0.111-0.083-0.059-0.15-0.14-0.205-0.244-0.057-0.115-0.079-0.229-0.065-0.339 0.013-0.111 0.052-0.222 0.114-0.334 0.064-0.11 0.139-0.222 0.231-0.336 0.089-0.115 0.183-0.232 0.279-0.353 0.097-0.122 0.185-0.248 0.265-0.382 0.083-0.133 0.144-0.271 0.189-0.419 0.044-0.148 0.058-0.306 0.043-0.472-0.014-0.165-0.069-0.344-0.163-0.533-0.106-0.203-0.241-0.372-0.406-0.507-0.165-0.133-0.352-0.23-0.558-0.287-0.206-0.059-0.423-0.075-0.652-0.051-0.228 0.025-0.457 0.096-0.686 0.212-0.233 0.118-0.44 0.263-0.622 0.432-0.181 0.17-0.343 0.365-0.483 0.589l0.686 0.497zm5.269-1.785 0.115 3.238 1.029-0.101-0.165-2.666 2.493 1.036 0.425-0.908-3.034-1.166-1.31-1.818-0.846 0.593 1.293 1.792zm2.475-3.376c0.014-0.102 0.04-0.211 0.075-0.325 0.035-0.116 0.079-0.227 0.132-0.333 0.053-0.105 0.115-0.195 0.185-0.269 0.129-0.133 0.263-0.221 0.4-0.265s0.27-0.05 0.397-0.016c0.129 0.033 0.246 0.1 0.35 0.201 0.106 0.105 0.168 0.22 0.185 0.345 0.016 0.126 0.004 0.26-0.035 0.402s-0.09 0.291-0.152 0.448c-0.061 0.155-0.117 0.316-0.168 0.483s-0.078 0.339-0.084 0.513 0.027 0.35 0.098 0.529c0.072 0.179 0.199 0.358 0.382 0.538 0.159 0.151 0.335 0.262 0.527 0.333 0.193 0.067 0.394 0.096 0.603 0.08 0.211-0.014 0.419-0.073 0.627-0.176 0.207-0.102 0.405-0.249 0.592-0.441 0.184-0.192 0.334-0.407 0.452-0.644 0.117-0.236 0.208-0.486 0.27-0.747l-0.799-0.193c-0.032 0.121-0.066 0.238-0.099 0.35-0.035 0.113-0.078 0.221-0.132 0.324-0.052 0.105-0.125 0.203-0.214 0.298-0.079 0.082-0.167 0.15-0.261 0.203-0.093 0.054-0.191 0.089-0.291 0.106-0.099 0.016-0.198 0.011-0.295-0.017s-0.187-0.083-0.273-0.163c-0.091-0.091-0.149-0.191-0.172-0.301-0.024-0.108-0.024-0.226-0.001-0.352 0.024-0.124 0.059-0.255 0.109-0.393 0.047-0.138 0.097-0.279 0.149-0.425 0.051-0.147 0.094-0.295 0.127-0.446 0.034-0.153 0.047-0.305 0.041-0.458-0.006-0.155-0.044-0.309-0.113-0.461-0.067-0.152-0.176-0.303-0.328-0.451-0.165-0.157-0.348-0.273-0.548-0.347-0.2-0.072-0.408-0.103-0.621-0.089-0.214 0.01-0.425 0.065-0.634 0.164-0.207 0.097-0.4 0.239-0.58 0.422-0.18 0.188-0.33 0.392-0.447 0.611-0.115 0.22-0.204 0.459-0.264 0.715l0.81 0.247zm6.201-1.877-0.878 1.209 0.69 0.491 2.322-3.196-0.69-0.491-0.864 1.19-3.649-2.603-0.579 0.797 3.648 2.603zm3.054-3.053 1.337-2.516-0.748-0.398-0.875 1.646-1.217-0.63 0.868-1.632-0.708-0.376-0.871 1.639-1.295-0.68 0.889-1.673-0.748-0.397l-1.362 2.562 4.73 2.455zm2.127-0.622 0.488-0.919-1.458 0.446-0.3 0.565 1.27-0.092zm0.413-4.647 0.278-0.97-3.737-2.418 0.004-0.014 4.501-0.248 0.278-0.969-4.906-2.224-0.379 0.932 3.931 1.544-0.004 0.015-4.312 0.174-0.28 0.977 3.601 2.306-0.004 0.014-4.195-0.626-0.157 0.941 5.381 0.566z" fill="#50b737"/>
     </g>
     <g id="g4162" transform="translate(44.217 55.916)">
      <path id="path4164" d="m0 0c-8.321 0-13.861-6.17-13.861-12.476 0-6.098 4.491-9.736 7.798-11.227 2.486-1.123 4.375-3.362 4.375-6.099 0-3.51-3.336-6.926-8.313-6.926-0.645 0-1.327 0.072-1.888 0.18l-3.589-6.195c0.917-0.329 2.937-0.914 5.477-0.914 8.158 0 15.251 5.988 15.251 13.856 0 5.893-4.032 10.503-8.548 12.451-2.581 1.113-3.629 3.224-3.629 4.875 0 3.139 3.298 5.539 6.928 5.539 1.136 0 2.198-0.258 2.904-0.51 0.276 0.477 3.1 5.368 3.489 6.041-1.015 0.492-3.404 1.405-6.394 1.405" fill="#50b737"/>
     </g>
     <g id="g4166" transform="translate(22.428 52.644)">
      <path id="path4168" d="m0 0c-2.298 0-4.156-1.858-4.156-4.155s1.858-4.168 4.156-4.168 4.168 1.871 4.168 4.168-1.87 4.155-4.168 4.155" fill="#1b458f"/>
     </g>
     <g id="g4170" transform="translate(22.428 39.998)">
      <path id="path4172" d="m0 0c-1.915 0-3.46-1.55-3.46-3.464v-0.036-10.418c0-4.416 2.331-8.702 6.603-11.385l3.473 5.997c-2.201 1.443-3.141 3.575-3.141 5.422v10.399 0.021c0 1.914-1.56 3.464-3.475 3.464" fill="#1b458f"/>
     </g>
    </g>
   </g>
  </g>
 </g>
</svg>
